<svg version="1.2" xmlns="http://www.w3.org/2000/svg" viewBox="0 0 639 303" width="639" height="303">
	<style>
		.s0 { opacity: 1;fill: #010101 } 
		.s1 { opacity: .99;fill: #6e6e6c } 
		.s2 { opacity: .45;fill: #bfc0bd } 
	</style>
	<g id="Capa 1">
		<path id="Path 0" class="s0" d="m550.61 16c-1.99 2.2-4.59 6.14-5.78 8.75-1.65 3.61-2.17 6.66-2.17 12.75 0 6.58 0.45 8.89 2.53 13 1.4 2.75 4.91 7.7 7.81 11 2.9 3.3 7.19 8.92 9.54 12.5 2.71 4.13 4.73 8.69 5.54 12.5 1.05 4.9 1.04 7.1-0.02 12-0.84 3.85-2.85 8.33-5.63 12.5-2.37 3.58-5.35 7.85-6.62 9.5l-2.3 3c6.19-4.83 10.24-8.66 12.99-11.63 2.75-2.96 6.47-8.31 8.27-11.88 2.81-5.57 3.27-7.52 3.25-13.74-0.01-4.35-0.69-8.95-1.69-11.5-0.91-2.34-3.15-6.5-4.98-9.25-1.82-2.75-5.78-7.7-8.79-11-3.02-3.3-6.96-8.7-8.77-12-2.99-5.46-3.29-6.77-3.29-14.5 0-7.01 0.39-9.16 2.23-12.25 1.23-2.06 2.07-3.75 1.86-3.75-0.2 0-1.99 1.8-3.98 4zm5.15 176.22c0.19 1.4 1.48 1.9 5.99 2.32 3.16 0.29 9.12 1.02 13.25 1.61 4.12 0.59 9.98 1.75 13 2.57 3.02 0.81 7.41 2.56 9.75 3.88 3.49 1.97 4.37 3.07 4.91 6.15 0.36 2.06 0.7 5.44 0.75 7.5 0.09 3.71 0.12 3.74 3.59 3.14 1.95-0.34 5.46-0.01 7.91 0.75 2.42 0.75 5.46 2.6 6.75 4.11 1.28 1.51 2.83 4.66 3.42 7 0.6 2.34 0.77 5.82 0.39 7.75-0.39 1.93-1.59 5.53-2.68 8-1.09 2.47-3.85 6.28-6.14 8.45-2.28 2.18-7.3 5.39-11.15 7.13-3.85 1.74-8.69 3.45-10.75 3.8-3.04 0.5-4.25 1.43-6.36 4.87-1.44 2.34-4.48 6.2-6.75 8.58-2.28 2.39-5.72 5.13-7.64 6.1-1.92 0.96-5.75 2.39-8.5 3.16-3.02 0.85-9.55 1.4-16.5 1.38-8.12-0.02-13.11-0.55-17-1.79-3.02-0.96-7.41-2.86-9.75-4.21-2.34-1.36-6.1-4.83-8.37-7.72-2.26-2.89-5.41-7.84-7-11-1.58-3.16-3.75-8.34-4.81-11.5-1.06-3.16-2.21-7.32-2.57-9.25l-0.65-3.5c-5.7 5.57-8.7 8.09-10.35 9.2-1.65 1.11-5.93 3.16-9.5 4.57-3.67 1.44-10.85 3.09-16.5 3.78-5.85 0.72-13.32 0.95-18 0.56-4.4-0.37-10.48-0.89-13.5-1.14-4.68-0.4-5.05-0.32-2.5 0.55 1.65 0.57 6.6 1.68 11 2.49 4.4 0.8 12.61 1.46 18.25 1.47 5.64 0.01 13.17-0.66 16.75-1.48 3.57-0.82 7.74-2.05 9.25-2.72 1.51-0.67 4.89-2.47 7.5-4 2.61-1.53 5.2-2.56 5.75-2.28 0.55 0.28 1 1.18 1 2 0 0.82 1.2 4.31 2.67 7.75 1.47 3.44 4.57 9.18 6.88 12.75 2.32 3.57 5.73 7.86 7.58 9.52 1.85 1.67 5.39 4.02 7.87 5.24 2.48 1.22 8.33 2.89 13 3.73 4.67 0.83 10.75 1.51 13.5 1.51 2.75 0 8.6-0.63 13-1.39 4.4-0.76 10.25-2.5 13-3.86 2.75-1.37 7.19-4.91 9.86-7.87 2.68-2.96 5.43-6.5 6.12-7.88 0.87-1.73 2.76-2.93 6.14-3.91 2.68-0.77 7.77-2.8 11.3-4.5 3.53-1.7 8.37-5 10.75-7.34 2.38-2.34 5.3-6.16 6.49-8.5q2.15-4.25 2.6-11.75c0.31-5.34-0.03-8.72-1.16-11.75-1.08-2.87-2.98-5.23-5.85-7.25-2.97-2.11-5.83-3.16-9.5-3.5l-5.25-0.5c-0.05-9.04-0.47-9.89-4.34-13.5-2.7-2.52-6.3-4.62-9.72-5.67-2.99-0.92-7.92-2.17-10.94-2.77-3.02-0.6-10.22-1.44-15.99-1.86-9.72-0.7-10.47-0.62-10.25 1.02z"/>
		<path id="Path 1" class="s1" d="m446.5 259.73c2.2 0.21 6.02 0.21 8.5 0 2.48-0.21 0.68-0.38-4-0.38-4.68 0-6.7 0.17-4.5 0.38zm7 4c2.2 0.21 6.02 0.21 8.5 0 2.48-0.21 0.68-0.38-4-0.38-4.68 0-6.7 0.17-4.5 0.38zm91 27c2.2 0.21 6.02 0.21 8.5 0 2.48-0.21 0.67-0.38-4-0.38-4.67 0-6.7 0.17-4.5 0.38z"/>
		<path id="Path 2" fill-rule="evenodd" class="s0" d="m533.27 43c0.12 0 0.23 3.49 0.23 7.75 0 5.31 0.54 8.85 1.72 11.25 0.95 1.92 4.77 6.81 8.5 10.85 3.73 4.04 8.01 9.66 9.51 12.5 1.99 3.76 2.74 6.63 2.76 10.65 0.02 3.03-0.64 7.53-1.46 10-0.81 2.47-3.06 6.3-8.49 12.5l1.73-3.5c1.14-2.31 1.73-5.88 1.73-10.5 0-4.64-0.59-8.18-1.74-10.5-0.96-1.92-4.73-6.88-8.39-11-3.65-4.13-7.77-9.97-9.15-13-2.12-4.64-2.44-6.52-2.02-12 0.29-3.81 1.4-8.26 2.67-10.75 1.19-2.34 2.27-4.25 2.4-4.25zm-468.27 42.6c4.67 0.26 10.08 0.39 12 0.3 1.92-0.09 7.4-0.22 12.17-0.28 4.77-0.07 9.04 0.24 9.5 0.68 0.46 0.44 0.33 1.57-0.28 2.5-0.86 1.32-2.66 1.71-8 1.76-3.79 0.03-7.45 0.37-8.14 0.75-0.79 0.44-0.92 1.15-0.35 1.94 0.49 0.69 1.38 3.05 1.98 5.25 0.77 2.86 0.77 5.14 0.01 8-0.59 2.2-1.82 4.85-2.73 5.89-0.91 1.04-3.24 2.53-5.16 3.32-1.92 0.78-4.62 1.18-6 0.88-1.37-0.3-3.75-1.79-5.29-3.32-2.2-2.18-2.78-3.67-2.75-7.02 0.02-2.34 0.77-5.71 1.66-7.5 0.89-1.79 2.25-3.92 3.01-4.75 1.2-1.28 1.18-1.61-0.12-2.25-0.83-0.41-3.2-0.5-5.26-0.18-2.06 0.31-5.55 1.56-7.75 2.77-2.62 1.45-5.13 4.11-7.26 7.69-2.39 4.01-3.26 6.67-3.26 9.97 0.01 3.13 0.77 5.64 2.52 8.25 1.75 2.62 3.78 4.17 6.75 5.13 2.34 0.76 5.56 1.77 7.17 2.25 1.6 0.48 3.07 1.32 3.27 1.87 0.19 0.55-0.3 1.9-1.09 3-1.26 1.75-2.59 2-10.77 2.01-6.71 0.02-10.31 0.5-12.83 1.72-1.92 0.93-5.42 3.62-7.77 5.98-2.36 2.36-5.24 6.32-6.42 8.79-1.47 3.1-2.15 6.52-2.19 11-0.04 4.52 0.51 7.56 1.81 10 1.03 1.93 3.04 4.52 4.47 5.77 1.43 1.24 5 3.04 7.93 4 4.46 1.45 6.17 1.55 10.5 0.61 2.84-0.61 6.97-1.94 9.17-2.94 2.2-1.01 7.16-5.01 11.02-8.89 3.87-3.88 8.7-9.52 10.75-12.55 2.04-3.03 4.64-7.97 5.78-11 1.13-3.03 2.76-7.53 3.62-10 0.86-2.47 2.07-4.83 2.7-5.23 0.62-0.41 1.8-0.74 2.63-0.74 0.83 0 2.08 0.33 2.78 0.74 0.96 0.55 1.02 1.41 0.25 3.48-0.84 2.24-0.75 2.75 0.47 2.75 0.83 0 1.65-0.56 1.84-1.25 0.18-0.69 2.77-2.49 5.75-4.01 2.97-1.52 6.42-2.76 7.66-2.75 1.24 0 3.6 0.69 5.25 1.51 1.73 0.87 3.42 2.77 4 4.5q1 3 0 8c-0.55 2.75-1.71 6.69-2.57 8.75-0.87 2.06-2.46 6.22-3.55 9.25-1.09 3.03-1.84 6.63-1.68 8 0.19 1.59 1.03 2.62 2.3 2.83 1.35 0.23 3.31-1.11 6-4.09 2.2-2.44 5.19-6.87 6.64-9.84 1.45-2.97 3.56-7.43 4.69-9.9 1.13-2.47 3.99-6.71 6.36-9.42 2.49-2.85 6.42-5.9 9.31-7.24 2.75-1.28 6.13-2.32 7.5-2.33 1.38 0 3.96 0.9 5.75 1.99 1.79 1.1 3.26 2.56 3.28 3.25 0.02 0.69 0.92 0.01 2-1.5 1.4-1.95 2.84-2.75 4.97-2.75 1.93 0 3.24 0.62 3.68 1.75 0.41 1.06-2.18 10.25-6.56 23.25-3.98 11.82-6.96 21.72-6.62 22 0.34 0.28 2.53-1.53 4.87-4 2.34-2.47 6.12-6.97 8.4-10 2.49-3.31 5.51-9.29 7.57-15 1.89-5.22 5.68-15.35 8.44-22.5 2.76-7.15 6.77-17.05 12.82-31l3.95-0.28c2.17-0.16 4.28 0.07 4.68 0.5 0.4 0.43-4.37 13.83-10.61 29.78-6.24 15.95-11.85 30.57-12.46 32.5-0.62 1.93-1.41 5.53-1.77 8-0.49 3.44-0.26 4.91 0.98 6.25 1.14 1.22 2.29 1.52 3.8 1 1.2-0.41 3.62-2.55 5.38-4.75 1.76-2.2 4.57-6.7 6.24-10 1.67-3.3 4.71-10.28 6.76-15.5 2.05-5.22 4.45-10.07 5.34-10.77 0.88-0.69 2.85-1.26 4.36-1.25 1.51 0.01 3.02 0.58 3.35 1.27 0.33 0.69-1.72 7.1-4.56 14.25-2.89 7.3-5.4 15.41-5.72 18.5-0.46 4.37-0.24 5.76 1.05 6.75 1.32 1.01 2.11 0.96 4.13-0.25 1.38-0.82 4.52-4.09 6.98-7.25 2.47-3.16 6.51-9.8 8.98-14.75 2.46-4.95 5.11-11.47 5.87-14.5 0.76-3.03 1.9-6.51 2.53-7.75 0.63-1.24 2.15-2.96 3.39-3.83 1.4-0.98 3.28-1.36 5-1 2.11 0.45 2.75 1.16 2.75 3.08 0 1.37-0.45 2.72-1 3-0.55 0.28-1.73 2.41-4.22 9l5.13 10.5c4.06 8.32 5.14 11.54 5.17 20.5l3.55-4c1.95-2.2 4.62-5.8 5.92-8 1.31-2.2 4.67-10.53 7.48-18.5 2.81-7.97 6.24-17.65 7.62-21.5 1.37-3.85 3.1-8.58 3.83-10.5 0.73-1.92 1.94-5.03 2.68-6.9 0.78-1.99 2.38-3.77 3.84-4.3 1.37-0.51 3.51-0.66 4.75-0.36 1.24 0.31 2.25 1.01 2.25 1.56 0 0.55-3.37 9.89-7.5 20.75-4.12 10.86-7.51 20.2-7.52 20.75-0.01 0.55 1.22-0.21 2.75-1.7 1.52-1.48 4.46-3.39 6.52-4.25 2.06-0.85 4.87-1.55 6.25-1.55 1.37 0 3.85 1.12 5.5 2.5 2.7 2.25 3 3.08 3 8.25-0.01 4-0.98 8.33-3.19 14.25-1.75 4.68-3.21 10.52-3.25 12.98-0.05 3.53 0.31 4.54 1.69 4.75 0.96 0.15 3.21-1.24 5-3.09 1.79-1.85 4.67-6.02 6.4-9.25 1.73-3.24 3.75-6.43 4.5-7.08 0.74-0.66 1.95-0.88 2.68-0.5q1.33 0.69 0.74 3.69c-0.33 1.65-2.74 6.37-5.37 10.5-2.62 4.12-6.52 8.85-8.65 10.5-3.12 2.4-4.88 3-8.81 3-4.05 0-5.27-0.44-6.9-2.5-1.09-1.38-2.24-3.63-2.56-5-0.32-1.38 0.01-4.75 0.72-7.5 0.71-2.75 1.86-6.35 2.56-8 0.7-1.65 1.95-4.57 2.77-6.5 0.82-1.93 1.6-4.85 1.74-6.5 0.13-1.65 0.16-3.79 0.08-4.75-0.11-1.27-1.04-1.76-3.4-1.78-2.49-0.02-4.28 0.97-7.68 4.25-2.59 2.51-5.64 6.97-7.36 10.78-1.61 3.57-4.28 10.55-5.92 15.5-1.65 4.95-3.73 9.8-4.64 10.78-0.91 0.98-2.44 1.77-3.4 1.75-0.96-0.02-2.65-0.48-3.75-1.03-1.67-0.83-1.83-1.42-1-3.5 0.55-1.38 1-2.95 1-3.5 0-0.55-1.69 0.29-3.75 1.86-2.06 1.58-5.66 3.6-8 4.5-2.34 0.9-6.27 1.64-8.75 1.64-2.47 0-5.63-0.45-7-1-1.38-0.55-4.07-2.35-9.5-7l-3.25 2.81c-1.79 1.54-4.94 3.34-7 4-2.65 0.84-4.77 0.9-7.25 0.19-2.42-0.69-4-2-5.13-4.25-0.89-1.79-1.68-3.36-1.75-3.49-0.06-0.14-2.26 1.77-4.87 4.25-4.18 3.95-5.29 4.49-9.25 4.49-2.65 0-5.55-0.72-7.05-1.75-1.59-1.09-2.72-2.98-3-5-0.25-1.79-0.79-3.25-1.2-3.25-0.41 0-3.22 2.51-6.25 5.58-3.03 3.08-7.2 6.57-9.28 7.76-3.12 1.78-4.34 3.48-6.9 9.66-1.71 4.13-4.24 9.53-5.61 12-1.38 2.47-3.71 6.07-5.19 8-1.48 1.93-4.9 4.58-7.6 5.9-3.74 1.82-5.88 2.26-8.92 1.81-2.52-0.37-4.83-1.53-6.25-3.15-1.53-1.74-2.25-3.84-2.25-6.56 0-2.2 0.61-5.46 1.35-7.25 0.75-1.79 3.45-5.16 6-7.5 2.56-2.34 8.36-6.07 12.9-8.28 4.54-2.22 8.7-4.51 9.25-5.08 0.55-0.58 1.54-2.7 2.2-4.72 0.66-2.02 1-3.78 0.75-3.92-0.25-0.14-1.91 0.86-3.7 2.21-1.79 1.35-4.6 2.75-6.25 3.11-2.02 0.45-4.28 0.05-6.91-1.2-2.6-1.24-4.44-3.05-5.47-5.37-0.86-1.93-1.69-3.61-1.84-3.75-0.15-0.14-1.79 1.44-3.63 3.5-1.84 2.06-5.1 4.59-7.25 5.61q-3.9 1.87-7.15 1.25c-1.9-0.36-4.1-1.75-5.28-3.36-1.37-1.85-2.02-4.23-1.99-7.25 0.04-2.81 1.4-7.7 3.63-13 1.96-4.68 3.97-9.96 4.48-11.75 0.5-1.79 0.69-4.15 0.41-5.25-0.38-1.53-1.33-2-4.03-2-2.82 0-4.37 0.85-7.75 4.25-2.32 2.34-5.63 6.95-7.34 10.25-1.72 3.3-4.65 10.46-6.5 15.91-2.01 5.89-4.19 10.49-5.38 11.33-1.19 0.84-3.12 1.18-4.75 0.84-1.89-0.4-2.75-1.2-2.75-2.58 0-1.7-0.71-1.38-4.75 2.14-2.61 2.28-7.67 5.53-11.25 7.23-5.05 2.41-8.17 3.18-14 3.45-5.99 0.28-8.71-0.1-13.5-1.93-3.3-1.25-7.64-3.88-9.65-5.83-2.01-1.96-4.64-5.81-5.84-8.56-1.79-4.1-2.11-6.43-1.81-13 0.3-6.4 0.96-9.18 3.34-13.89 1.8-3.59 5.11-7.83 8.46-10.83 3.27-2.94 7.84-5.83 17.03-9.28l-2.33-2.5c-1.28-1.38-2.86-3.74-3.51-5.25-0.66-1.51-1.2-4.66-1.21-7-0.01-2.34 0.52-5.83 1.17-7.75 0.66-1.92 2.21-5.08 3.46-7 1.25-1.92 4.21-4.93 6.58-6.67 2.37-1.74 6.11-3.85 8.31-4.68 2.88-1.09 6.38-1.38 12.5-1.05zm7.07 13.4c-1.33 1.92-2.46 4.85-2.5 6.5-0.06 2.4 0.38 3.05 2.18 3.25 1.65 0.18 2.54-0.49 3.33-2.5 0.68-1.73 0.77-4.24 0.25-6.75l-0.84-4zm73.43 46.08c-1.41 1.88-3.44 5.78-4.53 8.67-1.08 2.89-1.97 7.72-1.97 10.75 0 4.5 0.37 5.68 2 6.5 1.19 0.59 2.91 0.65 4.25 0.14 1.24-0.47 3.55-2.38 5.13-4.25 1.58-1.86 3.89-5.42 5.13-7.89 1.24-2.47 3.09-7.06 4.12-10.19 1.57-4.77 1.67-6.12 0.62-8.25-0.89-1.83-2.04-2.56-4-2.55-1.51 0-3.98 0.83-5.48 1.83-1.5 1-3.87 3.36-5.27 5.24zm92.48 12.42l-4.99 9c4.49 5.82 5.74 6.5 8.51 6.5 2.5 0 3.95-0.64 5.06-2.25 1.14-1.66 1.46-4.08 1.19-9.25-0.23-4.37-1.15-8.69-2.47-11.5-1.16-2.47-2.16-3.82-2.21-3-0.06 0.82-2.35 5.55-5.09 10.5zm-107.23 45.37c-2.94 3.24-3.69 4.83-3.5 7.38 0.18 2.37 0.79 3.33 2.25 3.56 1.17 0.19 3.17-0.85 4.81-2.5 1.54-1.54 4.55-6.3 6.69-10.56 2.14-4.26 3.8-7.75 3.69-7.74-0.1 0-2.44 1.3-5.19 2.87-2.75 1.57-6.69 4.72-8.75 6.99zm346.75-117.51c4.06 0.21 7.39 1.09 10.28 2.72 2.57 1.45 4.87 3.72 5.75 5.67 0.81 1.79 1.48 5.16 1.5 7.5 0.01 2.34-0.84 6.28-1.89 8.75-1.06 2.48-3.88 6.19-6.28 8.27-3.14 2.72-5.27 3.77-7.61 3.75-2.42-0.01-3.25-0.47-3.25-1.77 0-0.96 1.58-2.99 3.5-4.5 1.93-1.51 4.4-4.55 5.5-6.75 1.1-2.2 2-5.35 2-7 0-1.91-1.06-4.19-2.92-6.25-2.66-2.96-3.43-3.25-8.75-3.25-4.41 0-7.28 0.71-11.83 2.93-3.5 1.71-8.52 5.46-12.04 9-3.32 3.34-8.09 9.22-10.58 13.07-2.5 3.85-5.59 9.47-6.86 12.5-1.28 3.03-3.14 8.65-4.15 12.5-1.05 4.01-1.83 10.41-1.82 15 0.01 6.77 0.46 8.92 2.92 14 2.14 4.41 4.05 6.73 7.22 8.76 3.54 2.27 5.43 2.76 10.56 2.75 4.56-0.01 7.81-0.71 12-2.6 3.47-1.57 8.26-5.04 12.07-8.75 3.47-3.39 8.51-9.31 11.18-13.16 2.67-3.85 6.04-10.15 7.47-14 1.44-3.85 3.74-10.15 5.12-14 1.37-3.85 3.59-10.15 4.92-14 1.34-3.85 3.71-10.15 8.14-21l4.68-0.25c2.57-0.14 4.67 0.09 4.67 0.5 0.01 0.41-3.59 10.09-8 21.5-4.4 11.41-7.66 20.76-7.25 20.78 0.41 0.02 1.65-0.94 2.75-2.14 1.1-1.2 4.03-3.06 6.5-4.14q4.5-1.97 7.75-1.36c1.9 0.36 4.1 1.75 5.29 3.36 1.31 1.78 2.02 4.25 2 7-0.02 2.34-1.21 7.51-2.64 11.5-1.43 3.99-3.25 9.28-4.04 11.75-0.78 2.47-1.19 5.51-0.89 6.75 0.3 1.27 1.29 2.25 2.28 2.25 0.96 0.01 3.08-1.23 4.7-2.75 1.62-1.51 4.22-4.78 5.78-7.25 1.55-2.47 4.67-9.22 6.92-15 2.24-5.78 4.71-11.74 5.47-13.25 0.76-1.51 2.39-3.17 3.63-3.68 1.24-0.51 3.26-0.73 4.5-0.5 1.44 0.28 2.25 1.15 2.25 2.43 0 1.1-0.86 3.69-1.9 5.75-1.05 2.06-2.65 5.78-3.56 8.25-0.91 2.47-2.55 7.43-3.64 11-1.44 4.7-1.82 7.89-1.37 11.5 0.34 2.75 1.66 7.25 2.93 10 1.27 2.75 2.82 6.57 3.44 8.5 0.62 1.93 1.14 5.07 1.14 7 0 1.93-0.46 4.96-1.02 6.75-0.56 1.79-0.79 3.47-0.52 3.75 0.28 0.28 1.18-0.85 2-2.5 1.41-2.81 1.86-3 7.25-2.99 3.16 0 8.68 0.45 12.25 1 3.58 0.55 9.43 1.71 13 2.59 3.58 0.88 7.63 2.4 11.5 5.18l-3.5 1.76c-1.92 0.97-5.97 2.36-9 3.09-3.02 0.72-12.25 1.84-20.5 2.48-11.4 0.89-18.6 0.89-30 0.01-8.25-0.64-17.7-1.82-21-2.62-3.3-0.8-7.25-2.02-8.79-2.72-1.53-0.71-2.78-1.73-2.77-2.28 0-0.55 1.03-1.55 2.28-2.21 1.26-0.67 4.76-1.88 7.78-2.7 3.03-0.82 9.1-2 13.5-2.61 4.4-0.61 10.7-0.97 14-0.8 5.98 0.32 6 0.33 6.25 3.57 0.14 1.79 0.7 3.25 1.25 3.25 0.55 0 1-2.25 1-5 0-2.75-0.55-6.24-1.22-7.75-0.68-1.51-3.13-5.9-5.46-9.75-2.32-3.85-4.58-8.47-5.02-10.27-0.44-1.8-1.02-3.27-1.3-3.26-0.27 0.01-1.06 0.92-1.75 2.03-0.69 1.1-3.16 3.36-5.5 5.03-2.95 2.1-5.39 3.02-8 3q-3.75-0.03-6.5-2.44c-2.41-2.12-2.75-3.14-2.75-8.25 0-4.44 1.02-8.54 4.25-17.09 3.3-8.73 4.03-11.7 3.25-13.25q-0.99-2-4.02-2c-2.23 0-4.15 1.12-7.27 4.25-2.33 2.34-5.42 6.72-6.87 9.75-1.45 3.03-4.37 10.17-6.48 15.87-2.14 5.73-4.75 11.02-5.86 11.82-1.21 0.89-3.08 1.24-4.75 0.89-2.2-0.47-2.7-1.07-2.5-3.06 0.14-1.36 0.14-2.49 0-2.5-0.14-0.01-2.84 2.27-6 5.07-3.16 2.8-7.1 5.77-8.75 6.59-1.65 0.82-5.02 2.13-7.5 2.9-2.47 0.77-7.2 1.41-10.5 1.43-3.3 0.01-7.57-0.51-9.5-1.16-1.92-0.64-5.07-2.24-7-3.53-1.92-1.3-4.98-4.26-6.78-6.59-1.81-2.33-4.01-6.7-4.9-9.73-0.88-3.03-1.62-8.87-1.63-13-0.02-4.12 0.54-9.97 1.23-13 0.7-3.03 2.17-7.97 3.27-11 1.1-3.03 3.64-8.57 5.65-12.33 2.02-3.75 6.02-9.72 8.91-13.25 2.88-3.54 7.83-8.46 11-10.93 3.16-2.47 7.78-5.46 10.25-6.64 2.48-1.18 6.53-2.74 9-3.47 2.48-0.73 7.2-1.18 10.5-1.02zm113.03 9.64c4.35 0 4.46 0.08 3.91 2.75-0.31 1.51-3.05 9.05-6.09 16.75-3.03 7.7-6.79 17.15-8.34 21-1.56 3.85-4.18 11.05-5.84 16-1.65 4.95-3.32 10.57-3.71 12.5-0.38 1.93-0.41 4.74-0.07 6.25 0.44 1.99 1.23 2.75 2.86 2.77 1.25 0.01 3.66-1.44 5.41-3.25 1.74-1.8 4.73-6.2 6.65-9.77 1.92-3.57 4.49-9.43 5.73-13 1.23-3.57 5.67-15.5 9.85-26.51 4.19-11 8.4-21.24 9.36-22.75 1.43-2.24 2.48-2.74 5.75-2.74 3.34 0 4 0.33 4 2 0 1.1-1.08 4.59-2.41 7.75-1.33 3.16-3.87 9.35-5.66 13.75-1.78 4.4-4.1 10.25-5.16 13-1.05 2.75-3.04 7.93-4.4 11.5-1.37 3.57-3.37 9.2-4.45 12.5-1.07 3.3-2.23 8.03-2.56 10.5-0.46 3.39-0.21 4.93 1.02 6.25 1.13 1.22 2.28 1.52 3.78 1 1.18-0.41 3.52-2.32 5.18-4.25 1.67-1.93 3.85-4.96 4.85-6.75 1-1.79 2.49-3.25 3.31-3.25 0.83 0 1.73 0.45 2 1 0.28 0.55-0.51 3.08-1.75 5.62-1.24 2.55-3.82 6.43-5.75 8.64-1.92 2.21-4.74 4.63-6.25 5.38-1.51 0.75-4.55 1.36-6.75 1.36-3.22 0-4.48-0.58-6.5-3-1.37-1.65-2.5-3.68-2.5-4.5 0-0.82-0.45-1.5-1-1.5-0.55 0-1.34 0.58-1.75 1.28-0.41 0.7-2.55 2.73-4.75 4.51-2.92 2.35-5.01 3.22-7.75 3.22-2.83-0.01-4.49-0.75-6.75-3.01-1.65-1.65-3-3.9-3-5 0-1.1-0.22-2-0.5-2-0.27 0-1.62 0.68-3 1.5-1.37 0.82-2.5 1.05-2.5 0.5 0-0.55 1.52-4.04 3.38-7.75 1.86-3.71 4.09-8.78 4.96-11.25 0.87-2.47 2.9-8.1 4.51-12.5 1.61-4.4 5.94-15.87 9.62-25.5 3.68-9.62 7.12-18.29 7.64-19.25 0.69-1.26 2.19-1.75 5.42-1.75zm-212.03 6.05c2.32-0.02 5.37 0.8 7.25 1.95 1.79 1.1 3.7 3.13 4.25 4.5 0.55 1.38 1 4.3 1 6.5 0 2.2-0.45 5.13-1 6.5-0.55 1.38-2.91 4.56-5.25 7.09-2.34 2.52-6.43 6.01-9.1 7.75-4.64 3.02-4.82 3.31-4.16 6.66 0.38 1.93 2.56 7.45 4.85 12.28 2.29 4.84 4.5 8.77 4.91 8.75 0.41-0.01 1.27-1.04 1.9-2.28 0.63-1.24 1.75-4.39 2.5-7 0.74-2.61 1.13-5.87 0.85-7.25-0.41-2.05-0.05-2.59 2-3 1.38-0.28 3.23 0.06 4.13 0.75 1.3 1 1.54 2.56 1.19 7.75-0.34 4.95-1.23 7.93-7.08 18.5l4.38 3.75c2.41 2.06 4.72 3.75 5.13 3.75 0.41 0 0.75 0.68 0.75 1.5 0 0.82-1.01 1.77-2.25 2.09-1.24 0.33-3.82 0.32-5.75-0.02-1.92-0.34-4.74-1.74-9-5.57l-4.75 2.75c-4.16 2.4-5.8 2.74-13.25 2.75-7.36 0-9.02-0.33-12.41-2.5-2.14-1.37-4.84-3.85-6-5.5-1.64-2.36-2.08-4.49-2.06-10 0.02-5.16 0.59-8.05 2.15-11 1.16-2.2 4.75-6.51 7.97-9.57 3.22-3.06 6.6-5.99 7.52-6.5 1.43-0.79 1.53-1.66 0.71-5.93-0.67-3.51-0.59-6.94 0.28-11.5 0.84-4.43 2.22-7.77 4.33-10.5 1.71-2.2 4.66-4.77 6.56-5.7 1.9-0.94 5.25-1.72 7.45-1.75zm-7.38 13.3c-1.29 2.59-2.08 6.12-2.1 9.4-0.01 2.89 0.32 5.24 0.73 5.23 0.41-0.01 2.19-1.02 3.95-2.25 1.76-1.23 4.35-4.03 5.76-6.23 1.41-2.2 2.57-5.35 2.57-7 0-1.65-0.56-3.57-1.26-4.27-0.7-0.69-1.94-1.24-2.77-1.22-0.82 0.03-2.24 0.53-3.15 1.12-0.91 0.59-2.59 2.94-3.73 5.22zm-13.5 34.64c-1.99 2.2-4.3 5.7-5.14 7.76-0.84 2.06-1.52 4.76-1.5 6 0.01 1.24 0.58 3.43 1.27 4.87 0.69 1.44 2.49 3.24 4 4 1.51 0.76 4.78 1.38 7.25 1.38 2.48 0 5.85-0.68 7.5-1.5l3-1.5c-4.64-7.36-7.51-12.99-9.38-17.26l-3.38-7.77zm-133.12-36c0.55 0 2.01 0.68 3.25 1.51 1.54 1.03 2.17 2.34 2 4.16-0.14 1.5-1.44 3.56-2.99 4.75-2.37 1.81-3.07 1.93-5.25 0.85-1.9-0.95-2.54-2.09-2.65-4.7-0.1-2.61 0.45-3.82 2.25-5.01 1.32-0.86 2.84-1.56 3.39-1.56zm310.75 78.15c5.08-0.1 6.83 0.22 7.08 1.28 0.25 1.02-1.07 1.59-4.75 2.03-2.79 0.34-8.91 1.09-13.58 1.67-4.68 0.58-11.65 1.98-15.5 3.1-5.03 1.47-7.92 2.99-10.25 5.41-3.04 3.15-3.25 3.84-3.25 10.38 0 5.1-0.57 8.15-2.11 11.25-1.16 2.33-3.74 5.97-5.75 8.07-2 2.1-6.34 5.32-9.64 7.15-3.3 1.82-8.93 4.01-12.5 4.86-3.58 0.86-10.55 1.85-15.5 2.2-4.95 0.36-14.4 0.14-21-0.48-6.6-0.63-13.8-1.53-16-2.01-2.2-0.48-7.83-1.65-12.5-2.6-4.68-0.95-11.88-2.62-16-3.7-4.13-1.09-8.4-2.2-9.5-2.48-1.1-0.28-13.93-4-28.5-8.26-14.58-4.27-27.4-7.99-28.5-8.27-1.1-0.29-7.4-1.97-14-3.75-6.6-1.77-14.93-3.87-18.5-4.66-3.58-0.78-8.75-1.84-11.5-2.35-2.75-0.51-11.3-1.84-19-2.95-9.69-1.41-19.09-2.03-30.5-2.01-11.41 0.02-20.05 0.61-28 1.92-6.33 1.05-14.65 2.89-18.5 4.09-3.85 1.21-9.93 3.53-13.5 5.16-3.58 1.63-7.85 3.93-9.5 5.1-1.65 1.18-2.49 1.48-1.88 0.68 0.62-0.81 4-3.36 7.5-5.68 3.51-2.31 9.3-5.4 12.88-6.85 3.57-1.45 9.87-3.49 14-4.54 4.12-1.05 13.12-2.58 20-3.4 6.87-0.82 16.77-1.49 22-1.47 5.22 0.01 15.35 0.64 22.5 1.41 7.15 0.77 16.15 1.93 20 2.57 3.85 0.65 10.15 1.84 14 2.65 3.85 0.81 11.72 2.58 17.5 3.93 5.77 1.35 12.75 3.1 15.5 3.89 2.75 0.78 8.6 2.4 13 3.59 4.4 1.19 9.35 2.53 11 2.97 1.65 0.44 6.37 1.77 10.5 2.95 4.12 1.19 14.25 3.88 22.5 5.98 8.25 2.11 18.82 4.57 23.5 5.47 4.67 0.91 10.75 2.15 13.5 2.75 2.75 0.6 12.87 1.3 22.5 1.55 14.4 0.38 18.74 0.15 24.5-1.28 3.85-0.96 9.47-2.86 12.5-4.22 3.02-1.35 7-3.65 8.84-5.1 1.84-1.45 4.63-4.66 6.19-7.13 1.79-2.84 3.23-7 3.9-11.25 0.95-6.01 1.48-7.09 4.82-9.84 2.06-1.69 6-3.88 8.75-4.85 2.75-0.97 8.15-2.29 12-2.92 3.85-0.64 8.12-1.32 9.5-1.51 1.37-0.2 5.54-0.42 9.25-0.5zm73.2 37.82c2.23-0.02 4.57 0.54 5.22 1.25 0.64 0.71 1.46 2.42 1.82 3.8 0.36 1.37 0.18 4.41-0.42 6.75-0.59 2.33-2.53 5.86-4.32 7.84-1.79 1.97-4.6 4.27-6.25 5.1-1.65 0.82-4.24 1.91-5.75 2.4-2.38 0.78-2.67 0.67-2.19-0.84 0.31-0.97 1.66-5.92 3-11 1.34-5.09 2.35-10.06 2.24-11.05-0.11-0.99 0.43-2.34 1.2-3 0.77-0.66 3.22-1.22 5.45-1.25zm-3.33 12.05c-0.66 3.57-1.07 6.6-0.91 6.74 0.16 0.13 1.54-1 3.06-2.5 2-1.98 2.84-3.89 3.01-6.84 0.14-2.4-0.25-4.34-0.94-4.66-0.64-0.31-1.59-0.26-2.1 0.1-0.51 0.36-1.46 3.58-2.12 7.16z"/>
		<path id="Path 3" class="s1" d="m112.41 169.24c0.07 2.46 0.58 3.33 2.09 3.55 1.27 0.19 3.27-1.08 5.5-3.5l3.5-3.79c-5.43 5.01-7.79 6.48-8.75 6.48-1.21 0.02-1.86-0.91-2.09-2.99-0.32-2.82-0.34-2.8-0.25 0.25z"/>
		<path id="Path 4" class="s2" d="m219.5 205.74c3.3 0.2 8.25 0.2 11 0 2.75-0.21 0.05-0.37-6-0.37-6.05 0.01-8.3 0.17-5 0.37zm324.5 12c3.58 0.2 8.98 0.19 12 0 3.02-0.2 0.1-0.36-6.5-0.36-6.6 0-9.08 0.17-5.5 0.36zm-107 32c2.48 0.2 6.75 0.2 9.5 0 2.75-0.21 0.73-0.38-4.5-0.38-5.23 0-7.48 0.17-5 0.38z"/>
	</g>
</svg>