<svg version="1.2" xmlns="http://www.w3.org/2000/svg" viewBox="0 0 570 44" width="570" height="44">
	<title>Separator-1</title>
	<style>
		.s0 { fill: #000000 } 
	</style>
	<path id="Path 0" class="s0" d="m11 22c0 0.5 1 1.3 2.3 1.6 1.2 0.3 3.4 0.3 5 0 1.5-0.3 2.7-1.1 2.7-1.6 0-0.5-2.3-1-5-1-2.8 0-5 0.5-5 1zm16-0.3c-0.7 0.2-1.3 0.9-1.2 1.4 0.1 0.5 2.2 0.9 4.7 0.9 2.5 0 4.7-0.5 5-1 0.3-0.5-0.5-1.2-1.8-1.5-1.2-0.3-2.9-0.4-3.7-0.4-0.8 0-2.2 0.3-3 0.6zm17-0.1c-0.7 0.3-1.3 1-1.2 1.5 0.1 0.5 2.3 0.9 5 0.9 3 0 4.3-0.3 3.7-0.9-0.5-0.5-2.1-1.2-3.5-1.5-1.4-0.3-3.2-0.2-4 0zm13.2 0.7c0.3 0.6 1.3 1.4 2.4 1.5 1 0.2 2.8 0.1 3.9-0.2 1.2-0.4 2-1.1 1.8-1.6-0.2-0.6-2.2-1-4.4-1-2.9 0-4 0.4-3.7 1.3zm16.8-0.6c-0.7 0.2-1.3 0.9-1.2 1.4 0.1 0.5 2 0.9 4.2 0.9 2.2 0 4.2-0.5 4.5-1 0.3-0.5-0.5-1.2-1.7-1.5-1.3-0.3-2.8-0.4-3.3-0.4-0.5 0-1.7 0.3-2.5 0.6zm14.5 0.7c-1.9 1.3-1.9 1.4 0.5 1.8 1.4 0.2 3.6 0.1 5-0.2l2.5-0.6c-3.5-1.9-4.8-2.4-5.3-2.4-0.4 0-1.6 0.6-2.7 1.4zm14.5-0.4c-1.3 0.8-1.2 1 0.5 1.6 1.1 0.4 3.5 0.4 5.3 0 1.7-0.3 3.2-1.1 3.2-1.6 0-0.5-1.7-1-3.8-1-2 0-4.4 0.5-5.2 1zm15.9 0.5c-1.3 1.3-1 1.5 2.3 1.5 2.1 0 4-0.5 4.3-1 0.3-0.5-0.5-1.2-1.8-1.5-1.2-0.3-2.4-0.5-2.7-0.5-0.3 0-1.2 0.7-2.1 1.5zm30.6-0.8c-0.5 0.3-0.8 1-0.7 1.5 0.1 0.4 1.3 0.8 2.7 0.8 1.4 0 3.2-0.2 4-0.5 0.8-0.3 1.3-1 1-1.5-0.3-0.5-1.8-1-3.3-1-1.6 0-3.2 0.3-3.7 0.7zm16 0c-1.1 0.2-1.9 0.9-1.7 1.4 0.1 0.5 2.3 0.9 4.9 0.9 3 0 4.4-0.3 3.8-0.9-0.6-0.5-1.9-1.1-3-1.4-1.1-0.2-2.9-0.2-4 0zm13.6 0c-0.8 0.2-1.4 0.9-1.3 1.4 0.1 0.5 2 0.9 4.2 0.9 2.2 0 4.1-0.4 4.2-0.9 0.1-0.5-0.9-1.1-2.2-1.5-1.4-0.3-2.7-0.5-3-0.5-0.3 0-1.2 0.3-1.9 0.6zm14.4 0c-0.5 0.3-0.8 1-0.7 1.5 0.1 0.4 2.2 0.8 4.7 0.8 2.5 0 4.5-0.5 4.5-1 0-0.5-1-1.2-2.3-1.5-1.2-0.3-2.9-0.5-3.8-0.5-0.9 0-1.9 0.3-2.4 0.7zm14.2 0.1c-0.4 0.4-0.4 1-0.2 1.5 0.3 0.4 1.8 0.7 3.5 0.7 1.7 0 3.7-0.2 4.5-0.5 0.8-0.3 1.3-1 1-1.5-0.3-0.5-2.2-1-4.3-1-2.1 0-4.2 0.3-4.5 0.8zm14.3 0.2c0 0.5 1 1.3 2.2 1.6 1.3 0.4 3.1 0.4 4 0 1-0.3 1.6-1.1 1.3-1.6-0.3-0.5-2.1-1-4-1-1.9 0-3.5 0.5-3.5 1zm16.5-0.1c-1.8 0.7-1.8 0.8-0.3 1.4 1 0.4 2.9 0.7 4.3 0.7 1.4 0 2.7-0.5 3-1 0.3-0.5-0.2-1.2-1-1.5-0.8-0.3-2.1-0.5-2.8-0.4-0.6 0-2.1 0.4-3.2 0.8zm15.5 0.1c0 0.5 0.6 1.3 1.2 1.6 0.7 0.4 2.3 0.4 3.5 0 1.3-0.3 2.3-1.1 2.3-1.6 0-0.5-1.6-1-3.5-1-1.9 0-3.5 0.5-3.5 1zm15.7-0.2c-0.4 0.4-0.4 1-0.2 1.5 0.3 0.4 1.9 0.7 3.5 0.7 1.6 0 3-0.5 3-1 0-0.5-0.7-1.2-1.5-1.5-0.8-0.3-2.1-0.5-2.8-0.5-0.8 0-1.7 0.3-2 0.8zm28.3 0.2c-1.3 0.8-1.3 1 0 1.5 0.8 0.4 2.4 0.5 3.4 0.3 1.1-0.2 2.1-0.9 2.3-1.5 0.2-0.8-0.6-1.3-2-1.3-1.2 0-2.9 0.5-3.7 1zm14.1-0.3c-0.8 0.2-1.4 0.9-1.3 1.4 0.1 0.5 2 0.9 4.2 0.9 2.2 0 4.1-0.4 4.2-0.9 0.1-0.5-0.9-1.1-2.2-1.5-1.4-0.3-2.7-0.5-3-0.5-0.3 0-1.2 0.3-1.9 0.6zm15.8 0.8c-1.2 1.4-1 1.6 2.3 1.5 2.1 0 4-0.5 4.3-1 0.3-0.5-0.2-1.2-1-1.5-0.8-0.3-2.1-0.5-2.9-0.5-0.8 0-2 0.7-2.7 1.5zm13.6-0.8c-0.5 0.3-0.8 1-0.7 1.5 0.1 0.4 1.6 0.8 3.2 0.8 1.6 0 3.2-0.5 3.5-1 0.3-0.5-0.2-1.2-1-1.5-0.8-0.3-2.1-0.5-2.8-0.5-0.8 0-1.7 0.3-2.2 0.7zm14.2-0.1c-0.9 0.2-1.5 0.9-1.2 1.4 0.3 0.5 2.6 1 5.2 1 3.1 0 4.4-0.3 3.8-0.9-0.6-0.5-2.1-1.2-3.5-1.4-1.4-0.3-3.3-0.3-4.3-0.1zm16.5 0c-0.6 0.2-1 0.9-0.7 1.4 0.3 0.5 1.9 1 3.5 1 1.6 0 3.2-0.5 3.5-1 0.3-0.5-0.5-1.2-1.8-1.5-1.2-0.3-2.4-0.4-2.7-0.4-0.3 0-1.1 0.2-1.8 0.5zm11.8 0.4c0 0.5 0.8 1.3 1.7 1.6 1 0.4 2.8 0.4 4 0 1.3-0.3 2.1-1.1 1.8-1.6-0.3-0.5-2.1-1-4-1-1.9 0-3.5 0.5-3.5 1zm16.7-0.4c-0.9 0.2-1.5 0.9-1.2 1.4 0.3 0.5 1.7 1 3.2 1 1.6 0 3.5-0.5 4.3-1 1.3-0.8 1.2-1-0.3-1-0.9 0-2.3-0.2-3-0.4-0.6-0.2-2-0.2-3 0zm17 0c-0.9 0.2-1.5 0.9-1.2 1.4 0.3 0.5 2.3 1 4.5 1 2.2 0 4.2-0.5 4.5-1 0.3-0.5-0.5-1.2-1.8-1.5-1.2-0.3-2.6-0.4-3.2-0.4-0.6 0.1-1.8 0.3-2.8 0.5zm14.8 0.4c-0.3 0.5 0.2 1.2 1 1.5 0.8 0.3 2.6 0.3 4 0 1.4-0.3 2.3-1 2-1.5-0.3-0.5-1.8-1-3.5-1-1.6 0-3.1 0.5-3.5 1zm16.2-0.4c-0.9 0.2-1.5 0.9-1.2 1.4 0.3 0.5 2.4 1 4.7 1 2.7 0 3.9-0.3 3.3-0.9-0.6-0.5-1.9-1.1-3-1.4-1.1-0.2-2.8-0.3-3.8-0.1zm14.4 0.1c-0.8 0.2-1.4 0.9-1.3 1.4 0.1 0.5 2.2 0.9 4.7 0.9 2.5 0 4.7-0.5 5-1 0.3-0.5-1-1.2-2.8-1.5-1.7-0.3-3.4-0.5-3.7-0.4-0.3 0-1.2 0.3-1.9 0.6zm15.8 0.8c-1.2 1.4-0.9 1.6 2.8 1.5 2.4 0 4.3-0.5 4.3-1 0-0.5-0.7-1.2-1.5-1.5-0.8-0.3-2.1-0.5-2.9-0.5-0.8 0-2 0.7-2.7 1.5zm14.3-0.9c-0.6 0.2-1 0.9-0.7 1.4 0.3 0.5 1.6 1 3 1 1.4 0 3.2-0.2 4-0.5 0.8-0.3 1.3-1 1-1.5-0.3-0.5-1.7-1-3.3-0.9-1.5 0-3.3 0.2-4 0.5zm14.3 0.4c-0.3 0.5 0.5 1.3 1.7 1.6 1.3 0.3 3.7 0.3 5.3-0.1 2.7-0.7 2.8-0.8 1-1.5-1.1-0.5-3.2-0.9-4.7-0.9-1.5-0.1-2.9 0.4-3.3 0.9zm16-0.3c-0.5 0.3-0.8 1-0.7 1.5 0.1 0.4 1.8 0.8 3.7 0.8 1.9 0 3.7-0.5 4-1 0.3-0.5-0.2-1.2-1-1.5-0.8-0.3-2.3-0.5-3.3-0.5-1 0-2.2 0.3-2.7 0.7zm14.4 0.8c-1.3 1.3-0.9 1.5 3.1 1.5 4.2-0.1 4.4-0.2 2.5-1.5-1.1-0.9-2.5-1.5-3-1.5-0.6 0-1.7 0.7-2.6 1.5zm15.3-0.9c-0.6 0.2-1 0.9-0.7 1.4 0.3 0.5 2.1 1 4 1 1.9 0 3.7-0.5 4-1 0.3-0.5-0.2-1.2-1-1.5-0.8-0.3-2.3-0.5-3.3-0.4-0.9 0-2.3 0.2-3 0.5zm-421.2 1.4c0 0.5 2.4 1 5.2 1 3.8 0 4.9-0.3 3.8-1-0.8-0.5-3.2-1-5.3-1-2 0-3.7 0.5-3.7 1zm150.5 0c-0.3 0.5 0.3 1.2 1.2 1.5 1 0.3 3 0.3 4.5 0 1.6-0.3 2.8-1 2.8-1.5 0-0.5-1.8-1-4-1-2.1 0-4.1 0.5-4.5 1z"/>
</svg>